HIERARCHY
ROOT Hips
{
	OFFSET 0.000000 0.000000 0.000000
	CHANNELS 6 Xposition Yposition Zposition Xrotation Yrotation Zrotation
	JOINT LeftUpLeg_virtual
	{
		OFFSET 0.000000 0.000000 0.000000
		CHANNELS 3 Xrotation Yrotation Zrotation
		JOINT LeftUpLeg
		{
			OFFSET 13.026900 -6.336304 -1.092800
			CHANNELS 3 Xrotation Yrotation Zrotation
			JOINT LeftLeg
			{
				OFFSET 0.524474 -46.096886 9.782700
				CHANNELS 3 Xrotation Yrotation Zrotation
				JOINT LeftFoot
				{
					OFFSET -0.524474 -53.427422 -12.948200
					CHANNELS 3 Xrotation Yrotation Zrotation
					JOINT LeftToeBase
					{
						OFFSET 0.192200 -14.009700 16.364100
						CHANNELS 3 Xrotation Yrotation Zrotation
						JOINT LeftToe_End
						{
							OFFSET -1.784700 -0.561700 9.474800
							CHANNELS 3 Xrotation Yrotation Zrotation
							End Site
							{
								OFFSET 0 0 0
							}
						}
					}
				}
			}
		}
	}
	JOINT RightUpLeg_virtual
	{
		OFFSET 0.000000 0.000000 0.000000
		CHANNELS 3 Xrotation Yrotation Zrotation
		JOINT RightUpLeg
		{
			OFFSET -12.883000 -6.336304 -1.092800
			CHANNELS 3 Xrotation Yrotation Zrotation
			JOINT RightLeg
			{
				OFFSET -0.524587 -46.096825 9.782800
				CHANNELS 3 Xrotation Yrotation Zrotation
				JOINT RightFoot
				{
					OFFSET 0.524587 -53.427383 -12.948300
					CHANNELS 3 Xrotation Yrotation Zrotation
					JOINT RightToeBase
					{
						OFFSET -0.192200 -14.009700 16.364100
						CHANNELS 3 Xrotation Yrotation Zrotation
						JOINT RightToe_End
						{
							OFFSET 1.784700 -0.561700 9.474800
							CHANNELS 3 Xrotation Yrotation Zrotation
							End Site
							{
								OFFSET 0 0 0
							}
						}
					}
				}
			}
		}
	}
	JOINT Spine_virtual
	{
		OFFSET 0.000000 0.000000 0.000000
		CHANNELS 3 Xrotation Yrotation Zrotation
		JOINT Spine
		{
			OFFSET 0.072000 7.257294 -0.789700
			CHANNELS 3 Xrotation Yrotation Zrotation
			JOINT Spine1
			{
				OFFSET 0.000000 12.508769 -0.658067
				CHANNELS 3 Xrotation Yrotation Zrotation
				JOINT Spine1_split
				{
					OFFSET 0.000000 12.508769 -0.658067
					CHANNELS 3 Xrotation Yrotation Zrotation
					JOINT Spine2
					{
						OFFSET 0.000000 12.508769 -0.658067
						CHANNELS 3 Xrotation Yrotation Zrotation
						JOINT Neck_virtual
						{
							OFFSET 0.000000 0.000000 0.000000
							CHANNELS 3 Xrotation Yrotation Zrotation
							JOINT Neck
							{
								OFFSET 0.000000 14.033295 7.520400
								CHANNELS 3 Xrotation Yrotation Zrotation
								JOINT Head
								{
									OFFSET 0.000000 8.198502 5.703100
									CHANNELS 3 Xrotation Yrotation Zrotation
									JOINT HeadTop_End
									{
										OFFSET 0.000000 17.760803 13.332701
										CHANNELS 3 Xrotation Yrotation Zrotation
										End Site
										{
											OFFSET 0 0 0
										}
									}
								}
							}
						}
						JOINT LeftShoulder_virtual
						{
							OFFSET 0.000000 0.000000 0.000000
							CHANNELS 3 Xrotation Yrotation Zrotation
							JOINT LeftShoulder
							{
								OFFSET 6.292450 5.785301 -0.669000
								CHANNELS 3 Xrotation Yrotation Zrotation
								JOINT LeftShoulder_split
								{
									OFFSET 6.292450 5.785301 -0.669000
									CHANNELS 3 Xrotation Yrotation Zrotation
									JOINT LeftArm
									{
										OFFSET 13.907140 -6.093903 1.965100
										CHANNELS 3 Xrotation Yrotation Zrotation
										JOINT LeftForeArm
										{
											OFFSET 34.140198 0.000000 0.000000
											CHANNELS 3 Xrotation Yrotation Zrotation
											JOINT LeftHand
											{
												OFFSET 40.960209 0.000000 0.000000
												CHANNELS 3 Xrotation Yrotation Zrotation
												End Site
												{
													OFFSET 0 0 0
												}
											}
										}
									}
								}
							}
						}
						JOINT RightShoulder_virtual
						{
							OFFSET 0.000000 0.000000 0.000000
							CHANNELS 3 Xrotation Yrotation Zrotation
							JOINT RightShoulder
							{
								OFFSET -6.292450 5.785301 -0.669000
								CHANNELS 3 Xrotation Yrotation Zrotation
								JOINT RightShoulder_split
								{
									OFFSET -6.292450 5.785301 -0.669000
									CHANNELS 3 Xrotation Yrotation Zrotation
									JOINT RightArm
									{
										OFFSET -13.907140 -6.093903 1.965100
										CHANNELS 3 Xrotation Yrotation Zrotation
										JOINT RightForeArm
										{
											OFFSET -34.140198 0.000000 0.000000
											CHANNELS 3 Xrotation Yrotation Zrotation
											JOINT RightHand
											{
												OFFSET -40.960209 0.000000 0.000000
												CHANNELS 3 Xrotation Yrotation Zrotation
												End Site
												{
													OFFSET 0 0 0
												}
											}
										}
									}
								}
							}
						}
					}
				}
			}
		}
	}
}
MOTION
Frames: 9
Frame Time: 0.03333333
-1.580186 110.768227 -17.922489 0.000000 0.000000 0.000000 -0.772947 1.071841 4.166943 -21.903302 21.535354 5.101155 28.451935 7.295854 -0.168622 -5.546688 6.330206 -4.047669 2.568663 -0.796869 0.670011 0.000000 0.000000 0.000000 -0.506002 2.523827 3.977385 -9.147626 -11.639786 -11.989139 27.309524 5.770021 -1.359406 -17.233221 -7.296237 17.795593 6.304755 3.163666 -9.436268 0.000000 0.000000 0.000000 -3.689336 13.002927 2.565565 1.745635 1.710169 -5.239702 3.075126 -0.791298 0.733648 0.144699 0.196572 -0.175123 0.000000 0.000000 0.000000 4.727263 2.241683 1.128518 0.393858 -1.940568 -0.136348 -9.368796 -26.918349 -8.726658 0.000000 0.000000 0.000000 3.326864 0.390676 0.735066 0.604164 -6.948957 -2.130542 -4.609736 -5.151367 -0.974693 -13.173794 10.283470 -65.642564 1.939653 -42.390234 -2.205801 0.000000 0.000000 0.000000 5.114712 0.653577 0.905564 4.666581 10.720818 -5.995074 1.402712 2.054072 1.257289 -2.814395 -5.388986 65.648281 -7.326375 42.958922 13.606888 0.000000 0.000000 0.000000 
-1.757637 110.754211 -18.086712 0.000000 0.000000 0.000000 -0.809075 1.329967 4.142459 -22.094538 21.070010 5.163869 28.708972 7.338588 -0.165030 -5.321359 6.499438 -4.133613 2.653535 -0.786925 0.638124 0.000000 0.000000 0.000000 -0.434026 2.466907 3.994639 -9.351713 -11.993352 -11.935589 27.026270 5.596996 -1.359423 -17.127825 -7.368110 17.957952 6.135547 3.191756 -9.461759 0.000000 0.000000 0.000000 -3.558979 12.555270 2.761536 1.780245 1.605304 -5.281965 3.018972 -0.834680 0.725827 0.143990 0.188497 -0.166577 0.000000 0.000000 0.000000 4.898136 2.210562 1.125636 0.569231 -1.804647 -0.112727 -9.668853 -26.384073 -8.979803 0.000000 0.000000 0.000000 3.470300 0.352428 0.789649 0.578986 -7.113408 -2.243412 -3.987328 -6.000173 -0.503169 -13.696260 9.909572 -65.668280 1.960509 -42.744352 -2.168110 0.000000 0.000000 0.000000 5.153529 0.583120 0.915869 4.699320 10.907843 -5.959888 1.066898 1.522548 1.172825 -2.663887 -5.282087 65.596242 -7.412021 43.155509 13.707438 0.000000 0.000000 0.000000 
-2.030831 110.701431 -18.423489 0.000000 0.000000 0.000000 -0.769001 1.559557 3.979298 -22.526474 20.324223 5.334652 28.855043 7.524500 -0.116574 -5.098103 6.954693 -4.211832 2.803573 -0.762188 0.563961 0.000000 0.000000 0.000000 -0.221174 2.445752 3.845213 -9.772248 -12.218227 -11.823670 26.964675 5.576097 -1.413384 -17.019981 -7.317836 18.287891 5.964198 3.267240 -9.467130 0.000000 0.000000 0.000000 -3.277742 11.943037 2.907821 1.921511 1.500150 -5.223653 3.035046 -0.912321 0.718530 0.169073 0.176252 -0.139552 0.000000 0.000000 0.000000 5.085665 2.127837 1.118843 0.777717 -1.445456 -0.151712 -9.807185 -24.615413 -8.837210 0.000000 0.000000 0.000000 3.676586 0.266128 0.821753 0.499716 -7.238419 -2.245029 -3.212277 -6.569343 -0.092276 -14.275860 9.166079 -65.731582 2.119698 -42.592144 -1.951067 0.000000 0.000000 0.000000 5.294107 0.469717 0.925916 4.704882 10.988761 -6.166232 0.708108 1.136324 1.029168 -2.422683 -5.283170 65.468108 -7.277709 43.003626 13.529252 0.000000 0.000000 0.000000 
-2.293263 110.575851 -18.917675 0.000000 0.000000 0.000000 -0.617964 1.660755 3.697002 -23.139311 19.435903 5.605880 28.994600 7.825315 -0.056587 -4.965618 7.646006 -4.272122 3.036396 -0.724263 0.424240 0.000000 0.000000 0.000000 0.073297 2.354585 3.541830 -10.391072 -12.254925 -11.670061 27.221996 5.607097 -1.502576 -17.070972 -7.174934 18.495196 5.905537 3.366466 -9.416128 0.000000 0.000000 0.000000 -2.825868 11.178499 2.966677 2.194131 1.381382 -5.091617 3.116170 -1.038026 0.719252 0.196887 0.154936 -0.105733 0.000000 0.000000 0.000000 5.262854 1.972311 1.122286 0.988632 -0.873942 -0.154940 -9.798396 -21.550910 -8.290192 0.000000 0.000000 0.000000 3.916948 0.107057 0.851113 0.375890 -7.266259 -2.137988 -2.563967 -6.720373 0.265993 -14.856696 8.354955 -65.840817 2.389989 -42.085146 -1.551067 0.000000 0.000000 0.000000 5.540897 0.297539 0.933917 4.657506 11.014835 -6.605688 0.254989 0.916557 0.892838 -2.170608 -5.462123 65.366481 -6.951590 42.535567 13.092136 0.000000 0.000000 0.000000 
-2.542967 110.384026 -19.452366 0.000000 0.000000 0.000000 -0.293590 1.506531 3.365346 -23.902942 18.495268 6.015904 29.292424 8.196353 -0.027682 -4.953887 8.407498 -4.366591 3.276051 -0.684454 0.265675 0.000000 0.000000 0.000000 0.452826 2.120128 3.164870 -11.211056 -12.046139 -11.498806 27.733234 5.564319 -1.598018 -17.194875 -6.981689 18.437315 5.870463 3.482221 -9.280948 0.000000 0.000000 0.000000 -2.277729 10.314394 2.919623 2.625817 1.231989 -4.926574 3.253296 -1.235205 0.742247 0.194701 0.125612 -0.086553 0.000000 0.000000 0.000000 5.418404 1.740824 1.147104 1.176540 -0.133588 0.034211 -9.794621 -17.238638 -7.374180 0.000000 0.000000 0.000000 4.179523 -0.142816 0.899078 0.240962 -7.236795 -1.990293 -2.034997 -6.604474 0.671933 -15.464505 7.857970 -65.906647 2.797714 -41.418031 -0.922361 0.000000 0.000000 0.000000 5.859170 0.060492 0.947218 4.512680 11.007062 -7.208574 -0.259966 0.874960 1.008207 -1.917497 -5.697179 65.265381 -6.479380 41.883283 12.430622 0.000000 0.000000 0.000000 
-2.781060 110.127411 -20.028652 0.000000 0.000000 0.000000 0.229445 1.089252 3.020022 -24.795156 17.571080 6.576178 29.889157 8.538806 -0.046073 -5.068533 9.035516 -4.506794 3.336402 -0.663005 0.200966 0.000000 0.000000 0.000000 0.930893 1.749762 2.786385 -12.351374 -11.548516 -11.357629 28.486585 5.491742 -1.696490 -17.136876 -6.651878 18.252248 5.682714 3.603172 -9.089880 0.000000 0.000000 0.000000 -1.649615 9.320360 2.728427 3.248951 1.032380 -4.746867 3.420402 -1.513624 0.791552 0.161864 0.112124 -0.060536 0.000000 0.000000 0.000000 5.560200 1.437272 1.195212 1.328141 0.673494 0.522768 -9.982284 -11.904495 -6.163681 0.000000 0.000000 0.000000 4.468621 -0.473943 0.977191 0.142430 -7.236973 -1.863420 -1.720127 -6.424819 1.044763 -16.073660 7.949038 -65.794140 3.258291 -40.654891 -0.149430 0.000000 0.000000 0.000000 6.230678 -0.236915 0.980591 4.247547 11.012606 -7.834103 -0.877286 0.917479 1.299944 -1.507471 -5.879842 65.187817 -5.917997 41.219126 11.614062 0.000000 0.000000 0.000000 
-3.013192 109.824905 -20.725010 0.000000 0.000000 0.000000 0.960949 0.355234 2.700515 -25.807381 16.711496 7.317454 30.719916 8.803618 -0.111754 -5.287139 9.413856 -4.689278 3.183282 -0.666853 0.284328 0.000000 0.000000 0.000000 1.554195 1.225989 2.488686 -13.954590 -10.719704 -11.340691 29.355282 5.564478 -1.801374 -16.670907 -6.079413 18.279710 5.277053 3.715610 -8.942774 0.000000 0.000000 0.000000 -0.901784 8.248181 2.395948 4.091193 0.790653 -4.539218 3.630050 -1.830577 0.871021 0.117201 0.114249 -0.036543 0.000000 0.000000 0.000000 5.721320 1.089784 1.264030 1.490149 1.493318 1.408457 -10.577734 -5.981799 -4.827463 0.000000 0.000000 0.000000 4.772223 -0.852289 1.068956 0.101906 -7.370971 -1.804191 -1.735977 -6.121384 1.348029 -16.545223 8.597712 -65.339181 3.658976 -39.699088 0.604933 0.000000 0.000000 0.000000 6.626883 -0.558768 1.035774 3.868673 11.080990 -8.339015 -1.476191 0.887457 1.648524 -0.826101 -6.042638 65.104612 -5.361234 40.676324 10.772378 0.000000 0.000000 0.000000 
-3.231575 109.484489 -21.544010 0.000000 0.000000 0.000000 1.837406 -0.693419 2.444265 -27.017594 15.958821 8.254523 31.619237 9.001581 -0.214122 -5.471558 9.545700 -4.947963 2.946020 -0.695002 0.494007 0.000000 0.000000 0.000000 2.361785 0.489121 2.272591 -16.066352 -9.647027 -11.451172 30.251645 5.865910 -1.931512 -15.698915 -5.281231 18.690435 4.767424 3.802458 -8.941299 0.000000 0.000000 0.000000 -0.063528 7.075106 1.947839 5.172873 0.539215 -4.250021 3.882841 -2.124000 0.970278 0.080365 0.127353 -0.041189 0.000000 0.000000 0.000000 5.926160 0.754317 1.350963 1.671168 2.216621 2.623730 -11.789321 -0.096265 -3.605339 0.000000 0.000000 0.000000 5.092750 -1.205017 1.156155 0.140576 -7.678179 -1.905284 -2.229973 -5.889939 1.416844 -16.612087 9.698002 -64.299838 3.792846 -38.419134 1.119962 0.000000 0.000000 0.000000 7.064476 -0.843131 1.100941 3.424112 11.255717 -8.662320 -1.895576 0.752816 1.927975 0.156995 -6.311332 64.864619 -4.950942 40.446700 10.086433 0.000000 0.000000 0.000000 
-3.406723 109.123894 -22.453960 0.000000 0.000000 0.000000 2.855183 -1.904264 2.250744 -28.507864 15.385939 9.317643 32.482935 9.118263 -0.306340 -5.428063 9.510739 -5.339008 2.811903 -0.732232 0.744118 0.000000 0.000000 0.000000 3.342019 -0.555166 2.125637 -18.651232 -8.523589 -11.578706 31.251712 6.343925 -2.096040 -14.563416 -4.401981 19.238689 4.642187 3.804642 -9.148128 0.000000 0.000000 0.000000 0.883585 5.808056 1.489625 6.504799 0.303059 -3.848151 4.165181 -2.350220 1.063602 0.092702 0.150367 -0.058585 0.000000 0.000000 0.000000 6.203215 0.481617 1.446273 1.871798 2.830807 3.980078 -13.547914 5.622371 -2.728745 0.000000 0.000000 0.000000 5.406036 -1.467118 1.218245 0.227277 -8.116478 -2.156452 -3.030852 -5.708144 1.020988 -16.122209 10.936712 -62.579436 3.442735 -36.794734 1.133685 0.000000 0.000000 0.000000 7.493202 -1.047622 1.169546 2.946241 11.495074 -8.811684 -1.923163 0.548221 1.871296 1.288639 -7.079138 64.416928 -4.848520 40.423443 9.718873 0.000000 0.000000 0.000000 
